<svg id="Layer_1" data-name="Layer 1" xmlns="http://www.w3.org/2000/svg" viewBox="0 0 666 666"><defs><style>.cls-1{fill:#fff;}</style></defs><path d="M354.17,8.72,603.24,152.51A42.43,42.43,0,0,1,624.4,189.2V476.8a42.43,42.43,0,0,1-21.16,36.69L354.17,657.28a42,42,0,0,1-42.34,0L62.76,513.49A42.43,42.43,0,0,1,41.6,476.8V189.2a42.43,42.43,0,0,1,21.16-36.69L311.83,8.72A42,42,0,0,1,354.17,8.72Z"/><path class="cls-1" d="M222.28,484.71c-6.05,0-10.13-2.25-12.52-6.75s-2-10.13.7-16.88l104-264.17q6.12-15.61,18.57-15.62A17.08,17.08,0,0,1,343.39,185c3.09,2.39,5.77,6.47,7.74,12L455.36,461.08c2.81,6.75,3.1,12.38,1.13,16.88s-6.05,6.75-12.1,6.75a15.86,15.86,0,0,1-11-3.94c-2.82-2.67-5.07-6.61-6.76-11.53l-24.61-63.3H263.35l-24.19,63.3C235.22,479.5,229.45,484.71,222.28,484.71ZM332.56,224.76,274.75,376.68H391.08L333.26,224.76Z"/></svg>